<?xml version="1.0" standalone="no"?>
<!DOCTYPE svg PUBLIC "-//W3C//DTD SVG 20010904//EN"
 "http://www.w3.org/TR/2001/REC-SVG-20010904/DTD/svg10.dtd">
<svg version="1.0" xmlns="http://www.w3.org/2000/svg"
 width="400.000000pt" height="284.000000pt" viewBox="0 0 400.000000 284.000000"
 preserveAspectRatio="xMidYMid meet">
<metadata>
Created by potrace 1.15, written by Peter Selinger 2001-2017
</metadata>
<g transform="translate(0.000000,284.000000) scale(0.100000,-0.100000)"
fill="#000000" stroke="none">
<path d="M1313 1725 c-35 -18 -56 -36 -67 -59 -21 -44 -20 -54 4 -94 21 -35
76 -64 144 -76 22 -4 57 -14 78 -23 93 -37 37 -143 -76 -143 -38 0 -111 25
-137 47 -23 20 -29 16 -29 -17 0 -27 6 -33 48 -51 64 -28 163 -30 217 -4 46
23 85 76 85 116 0 30 -40 85 -68 93 -200 56 -230 74 -217 128 18 72 161 78
238 10 16 -14 17 -13 17 20 0 30 -5 37 -36 51 -20 10 -61 20 -92 23 -48 5 -65
2 -109 -21z"/>
<path d="M1798 1736 c-61 -22 -86 -43 -118 -99 -67 -117 -23 -273 95 -335 39
-20 131 -20 172 1 115 60 159 231 87 337 -59 88 -154 127 -236 96z m115 -47
c76 -39 115 -126 96 -217 -33 -161 -210 -194 -283 -54 -42 82 -27 173 39 239
36 37 48 43 84 43 23 0 52 -5 64 -11z"/>
<path d="M1110 1515 c0 -208 1 -215 20 -215 19 0 20 7 20 215 0 208 -1 215
-20 215 -19 0 -20 -7 -20 -215z"/>
<path d="M2300 1225 l0 -325 25 0 25 0 0 325 0 325 -25 0 -25 0 0 -325z"/>
<path d="M3010 1225 l0 -325 25 0 25 0 0 134 c0 148 8 181 60 233 40 41 95 51
146 27 56 -27 64 -57 64 -239 l0 -155 25 0 25 0 0 165 c0 177 -7 212 -51 251
-13 12 -41 27 -62 34 -50 16 -116 -1 -159 -41 -16 -16 -34 -29 -39 -29 -5 0
-9 61 -9 135 l0 135 -25 0 -25 0 0 -325z"/>
<path d="M3500 1415 l0 -65 -40 0 c-36 0 -40 -3 -40 -24 0 -21 5 -25 38 -28
l37 -3 3 -177 2 -177 27 -21 c21 -17 38 -20 82 -18 48 3 56 6 59 24 3 20 0 21
-44 16 -71 -8 -74 1 -74 194 l0 163 58 3 c49 3 57 6 57 23 0 17 -8 20 -57 23
l-58 3 0 64 c0 63 -1 65 -25 65 -24 0 -25 -2 -25 -65z"/>
<path d="M2717 1345 c-58 -22 -93 -51 -123 -103 -23 -39 -28 -59 -29 -118 0
-62 4 -77 30 -120 44 -71 110 -109 189 -109 43 1 74 8 104 23 38 20 42 26 42
59 0 31 -2 34 -12 21 -22 -28 -91 -58 -131 -58 -94 0 -167 78 -167 179 0 158
140 240 265 155 20 -13 38 -24 40 -24 3 0 5 13 5 30 0 25 -7 33 -41 50 -53 27
-124 34 -172 15z"/>
<path d="M2440 1119 l0 -220 23 3 c22 3 22 3 25 221 l2 217 -25 0 -25 0 0
-221z"/>
<path d="M334 1087 c-3 -8 -4 -49 -2 -93 l3 -79 870 0 870 0 0 90 0 90 -868 3
c-719 2 -868 0 -873 -11z"/>
</g>
</svg>
